<svg width="118" height="52" viewBox="0 0 118 52" fill="none" xmlns="http://www.w3.org/2000/svg">
<g id="rtrn-logo-filled" clip-path="url(#clip0_197_2117)">
<g id="Group">
<path id="Vector" d="M116.961 25.6611C116.961 11.8665 105.53 0.663731 91.5031 0.663731H26.1433C12.116 0.663731 0.685595 11.8665 0.685595 25.6611C0.685595 39.4557 12.116 50.6585 26.1433 50.6585H91.5031C105.534 50.6585 116.961 39.4557 116.961 25.6611ZM26.1433 0.5H91.5031C105.675 0.5 117.146 11.7728 117.146 25.6611C117.146 39.5495 105.675 50.8223 91.5031 50.8223H26.1433C11.9711 50.8223 0.5 39.5495 0.5 25.6611C0.5 11.7728 11.9711 0.5 26.1433 0.5Z" stroke="black"/>
<g id="Group_2">
<path id="Vector_2" d="M30.8396 15.7156C28.2773 15.7156 26.1538 16.8203 24.6709 18.6023V16.1116H19.7764V35.3253H24.6709V32.1745V25.3589C24.6709 22.7188 26.851 20.5789 29.5407 20.5789C30.9316 20.5789 32.1844 21.1556 33.0727 22.0761L36.8312 18.5815C35.2988 16.8098 33.1789 15.7156 30.836 15.7156H30.8396Z" fill="black"/>
<path id="Vector_3" d="M70.654 15.7156C68.0917 15.7156 65.9683 16.8203 64.4854 18.6023V16.1116H59.5908V35.3253H64.4854V32.1745V25.3589C64.4854 22.7188 66.6655 20.5789 69.3552 20.5789C70.746 20.5789 71.9989 21.1556 72.8872 22.0761L76.6457 18.5815C75.1133 16.8098 72.9934 15.7156 70.6505 15.7156H70.654Z" fill="black"/>
<path id="Vector_4" d="M53.005 26.1163C53.005 28.7703 50.8143 30.9206 48.1104 30.9206C45.4065 30.9206 43.2159 28.7703 43.2159 26.1163V20.916H50.0675L53.005 16.1117H43.2159V11.3074H38.3213V26.1128C38.3213 31.4173 42.7027 35.7214 48.1104 35.7214C53.5181 35.7214 57.8995 31.4208 57.8995 26.1128V25.6647H53.005V26.1128V26.1163Z" fill="black"/>
<path id="Vector_5" d="M97.8666 25.3589C97.817 20.0196 94.6248 15.7156 89.4011 15.7156C86.8388 15.7156 84.7153 16.8203 83.2324 18.6023V16.1116H78.3379V35.3253H83.2324V32.1746V25.3346C83.2466 22.7084 85.4196 20.5824 88.0987 20.5824C90.7778 20.5824 92.9685 22.7223 92.9685 25.3624C92.9685 25.3624 92.9685 25.3659 92.9685 25.3693V35.3288H97.8666V25.3624V25.3589Z" fill="black"/>
</g>
</g>
</g>
<defs>
<clipPath id="clip0_197_2117">
<rect width="117.646" height="51.3223" fill="white"/>
</clipPath>
</defs>
</svg>
